<?xml version="1.0" encoding="utf-8"?>
<!-- Generator: Adobe Illustrator 23.0.4, SVG Export Plug-In . SVG Version: 6.00 Build 0)  -->
<svg version="1.1" id="Layer_1" xmlns="http://www.w3.org/2000/svg" xmlns:xlink="http://www.w3.org/1999/xlink" x="0px" y="0px"
	 viewBox="0 0 794 790.5" style="enable-background:new 0 0 794 790.5;" xml:space="preserve">
<style type="text/css">
	.st0{opacity:0.7; fill:#FED7E1}
</style>
<g class="st0">
	<g>
		<circle cx="788" cy="784" r="6"/>
		<circle cx="788" cy="760.3" r="5.8"/>
		<circle cx="788" cy="736.5" r="5.7"/>
		<circle cx="788" cy="712.8" r="5.5"/>
		<circle cx="788" cy="689.1" r="5.4"/>
		<circle cx="788" cy="665.4" r="5.2"/>
		<circle cx="788" cy="641.6" r="5.1"/>
		<circle cx="788" cy="617.9" r="4.9"/>
		<circle cx="788" cy="594.2" r="4.8"/>
		<circle cx="788" cy="570.5" r="4.6"/>
		<circle cx="788" cy="546.7" r="4.5"/>
		<circle cx="788" cy="523" r="4.3"/>
		<circle cx="788" cy="499.3" r="4.2"/>
		<circle cx="788" cy="475.5" r="4"/>
		<circle cx="788" cy="451.8" r="3.9"/>
		<circle cx="788" cy="428.1" r="3.7"/>
		<circle cx="788" cy="404.4" r="3.6"/>
		<circle cx="788" cy="380.6" r="3.4"/>
		<circle cx="788" cy="356.9" r="3.3"/>
		<circle cx="788" cy="333.2" r="3.1"/>
		<circle cx="788" cy="309.5" r="3"/>
		<circle cx="788" cy="285.7" r="2.8"/>
		<circle cx="788" cy="262" r="2.7"/>
		<circle cx="788" cy="238.3" r="2.5"/>
		<circle cx="788" cy="214.5" r="2.4"/>
		<circle cx="788" cy="190.8" r="2.2"/>
		<circle cx="788" cy="167.1" r="2.1"/>
		<circle cx="788" cy="143.4" r="1.9"/>
		<circle cx="788" cy="119.6" r="1.8"/>
		<circle cx="788" cy="95.9" r="1.6"/>
		<circle cx="788" cy="72.2" r="1.5"/>
		<circle cx="788" cy="48.5" r="1.3"/>
		<circle cx="788" cy="24.7" r="1.2"/>
		<circle cx="788" cy="1" r="1"/>
	</g>
	<g>
		<circle cx="764.2" cy="783.3" r="5.8"/>
		<circle cx="764.2" cy="759.5" r="5.7"/>
		<circle cx="764.2" cy="735.8" r="5.5"/>
		<circle cx="764.2" cy="712.1" r="5.4"/>
		<circle cx="764.2" cy="688.4" r="5.2"/>
		<circle cx="764.2" cy="664.6" r="5.1"/>
		<circle cx="764.2" cy="640.9" r="4.9"/>
		<circle cx="764.2" cy="617.2" r="4.8"/>
		<circle cx="764.2" cy="593.5" r="4.6"/>
		<circle cx="764.2" cy="569.7" r="4.5"/>
		<circle cx="764.2" cy="546" r="4.3"/>
		<circle cx="764.2" cy="522.3" r="4.2"/>
		<circle cx="764.2" cy="498.5" r="4"/>
		<circle cx="764.2" cy="474.8" r="3.9"/>
		<circle cx="764.2" cy="451.1" r="3.7"/>
		<circle cx="764.2" cy="427.4" r="3.6"/>
		<circle cx="764.2" cy="403.6" r="3.4"/>
		<circle cx="764.2" cy="379.9" r="3.3"/>
		<circle cx="764.2" cy="356.2" r="3.1"/>
		<circle cx="764.2" cy="332.5" r="3"/>
		<circle cx="764.2" cy="308.7" r="2.8"/>
		<circle cx="764.2" cy="285" r="2.7"/>
		<circle cx="764.2" cy="261.3" r="2.5"/>
		<circle cx="764.2" cy="237.5" r="2.4"/>
		<circle cx="764.2" cy="213.8" r="2.2"/>
		<circle cx="764.2" cy="190.1" r="2.1"/>
		<circle cx="764.2" cy="166.4" r="1.9"/>
		<circle cx="764.2" cy="142.6" r="1.8"/>
		<circle cx="764.2" cy="118.9" r="1.6"/>
		<circle cx="764.2" cy="95.2" r="1.5"/>
		<circle cx="764.2" cy="71.5" r="1.3"/>
		<circle cx="764.2" cy="47.7" r="1.2"/>
		<circle cx="764.2" cy="24" r="1"/>
	</g>
	<g>
		<circle cx="740.3" cy="783.5" r="5.7"/>
		<circle cx="740.3" cy="759.8" r="5.5"/>
		<circle cx="740.3" cy="736.1" r="5.4"/>
		<circle cx="740.3" cy="712.4" r="5.2"/>
		<circle cx="740.3" cy="688.6" r="5.1"/>
		<circle cx="740.3" cy="664.9" r="4.9"/>
		<circle cx="740.3" cy="641.2" r="4.8"/>
		<circle cx="740.3" cy="617.5" r="4.6"/>
		<circle cx="740.3" cy="593.7" r="4.5"/>
		<circle cx="740.3" cy="570" r="4.3"/>
		<circle cx="740.3" cy="546.3" r="4.2"/>
		<circle cx="740.3" cy="522.5" r="4"/>
		<circle cx="740.3" cy="498.8" r="3.9"/>
		<circle cx="740.3" cy="475.1" r="3.7"/>
		<circle cx="740.3" cy="451.4" r="3.6"/>
		<circle cx="740.3" cy="427.6" r="3.4"/>
		<circle cx="740.3" cy="403.9" r="3.3"/>
		<circle cx="740.3" cy="380.2" r="3.1"/>
		<circle cx="740.3" cy="356.5" r="3"/>
		<circle cx="740.3" cy="332.7" r="2.8"/>
		<circle cx="740.3" cy="309" r="2.7"/>
		<circle cx="740.3" cy="285.3" r="2.5"/>
		<circle cx="740.3" cy="261.5" r="2.4"/>
		<circle cx="740.3" cy="237.8" r="2.2"/>
		<circle cx="740.3" cy="214.1" r="2.1"/>
		<circle cx="740.3" cy="190.4" r="1.9"/>
		<circle cx="740.3" cy="166.6" r="1.8"/>
		<circle cx="740.3" cy="142.9" r="1.6"/>
		<circle cx="740.3" cy="119.2" r="1.5"/>
		<circle cx="740.3" cy="95.5" r="1.3"/>
		<circle cx="740.3" cy="71.7" r="1.2"/>
		<circle cx="740.3" cy="48" r="1"/>
	</g>
	<g>
		<circle cx="716.5" cy="783.8" r="5.5"/>
		<circle cx="716.5" cy="760.1" r="5.4"/>
		<circle cx="716.5" cy="736.4" r="5.2"/>
		<circle cx="716.5" cy="712.6" r="5.1"/>
		<circle cx="716.5" cy="688.9" r="4.9"/>
		<circle cx="716.5" cy="665.2" r="4.8"/>
		<circle cx="716.5" cy="641.5" r="4.6"/>
		<circle cx="716.5" cy="617.7" r="4.5"/>
		<circle cx="716.5" cy="594" r="4.3"/>
		<circle cx="716.5" cy="570.3" r="4.2"/>
		<circle cx="716.5" cy="546.5" r="4"/>
		<circle cx="716.5" cy="522.8" r="3.9"/>
		<circle cx="716.5" cy="499.1" r="3.7"/>
		<circle cx="716.5" cy="475.4" r="3.6"/>
		<circle cx="716.5" cy="451.6" r="3.4"/>
		<circle cx="716.5" cy="427.9" r="3.3"/>
		<circle cx="716.5" cy="404.2" r="3.1"/>
		<circle cx="716.5" cy="380.5" r="3"/>
		<circle cx="716.5" cy="356.7" r="2.8"/>
		<circle cx="716.5" cy="333" r="2.7"/>
		<circle cx="716.5" cy="309.3" r="2.5"/>
		<circle cx="716.5" cy="285.5" r="2.4"/>
		<circle cx="716.5" cy="261.8" r="2.2"/>
		<circle cx="716.5" cy="238.1" r="2.1"/>
		<circle cx="716.5" cy="214.4" r="1.9"/>
		<circle cx="716.5" cy="190.6" r="1.8"/>
		<circle cx="716.5" cy="166.9" r="1.6"/>
		<circle cx="716.5" cy="143.2" r="1.5"/>
		<circle cx="716.5" cy="119.5" r="1.3"/>
		<circle cx="716.5" cy="95.7" r="1.2"/>
		<circle cx="716.5" cy="72" r="1"/>
	</g>
	<g>
		<circle cx="692.6" cy="785.1" r="5.4"/>
		<circle cx="692.6" cy="761.4" r="5.2"/>
		<circle cx="692.6" cy="737.6" r="5.1"/>
		<circle cx="692.6" cy="713.9" r="4.9"/>
		<circle cx="692.6" cy="690.2" r="4.8"/>
		<circle cx="692.6" cy="666.5" r="4.6"/>
		<circle cx="692.6" cy="642.7" r="4.5"/>
		<circle cx="692.6" cy="619" r="4.3"/>
		<circle cx="692.6" cy="595.3" r="4.2"/>
		<circle cx="692.6" cy="571.5" r="4"/>
		<circle cx="692.6" cy="547.8" r="3.9"/>
		<circle cx="692.6" cy="524.1" r="3.7"/>
		<circle cx="692.6" cy="500.4" r="3.6"/>
		<circle cx="692.6" cy="476.6" r="3.4"/>
		<circle cx="692.6" cy="452.9" r="3.3"/>
		<circle cx="692.6" cy="429.2" r="3.1"/>
		<circle cx="692.6" cy="405.5" r="3"/>
		<circle cx="692.6" cy="381.7" r="2.8"/>
		<circle cx="692.6" cy="358" r="2.7"/>
		<circle cx="692.6" cy="334.3" r="2.5"/>
		<circle cx="692.6" cy="310.5" r="2.4"/>
		<circle cx="692.6" cy="286.8" r="2.2"/>
		<circle cx="692.6" cy="263.1" r="2.1"/>
		<circle cx="692.6" cy="239.4" r="1.9"/>
		<circle cx="692.6" cy="215.6" r="1.8"/>
		<circle cx="692.6" cy="191.9" r="1.6"/>
		<circle cx="692.6" cy="168.2" r="1.5"/>
		<circle cx="692.6" cy="144.5" r="1.3"/>
		<circle cx="692.6" cy="120.7" r="1.2"/>
		<circle cx="692.6" cy="97" r="1"/>
	</g>
	<g>
		<circle cx="668.8" cy="784.4" r="5.2"/>
		<circle cx="668.8" cy="760.6" r="5.1"/>
		<circle cx="668.8" cy="736.9" r="4.9"/>
		<circle cx="668.8" cy="713.2" r="4.8"/>
		<circle cx="668.8" cy="689.5" r="4.6"/>
		<circle cx="668.8" cy="665.7" r="4.5"/>
		<circle cx="668.8" cy="642" r="4.3"/>
		<circle cx="668.8" cy="618.3" r="4.2"/>
		<circle cx="668.8" cy="594.5" r="4"/>
		<circle cx="668.8" cy="570.8" r="3.9"/>
		<circle cx="668.8" cy="547.1" r="3.7"/>
		<circle cx="668.8" cy="523.4" r="3.6"/>
		<circle cx="668.8" cy="499.6" r="3.4"/>
		<circle cx="668.8" cy="475.9" r="3.3"/>
		<circle cx="668.8" cy="452.2" r="3.1"/>
		<circle cx="668.8" cy="428.5" r="3"/>
		<circle cx="668.8" cy="404.7" r="2.8"/>
		<circle cx="668.8" cy="381" r="2.7"/>
		<circle cx="668.8" cy="357.3" r="2.5"/>
		<circle cx="668.8" cy="333.5" r="2.4"/>
		<circle cx="668.8" cy="309.8" r="2.2"/>
		<circle cx="668.8" cy="286.1" r="2.1"/>
		<circle cx="668.8" cy="262.4" r="1.9"/>
		<circle cx="668.8" cy="238.6" r="1.8"/>
		<circle cx="668.8" cy="214.9" r="1.6"/>
		<circle cx="668.8" cy="191.2" r="1.5"/>
		<circle cx="668.8" cy="167.5" r="1.3"/>
		<circle cx="668.8" cy="143.7" r="1.2"/>
		<circle cx="668.8" cy="120" r="1"/>
	</g>
	<g>
		<circle cx="644.9" cy="783.6" r="5.1"/>
		<circle cx="644.9" cy="759.9" r="4.9"/>
		<circle cx="644.9" cy="736.2" r="4.8"/>
		<circle cx="644.9" cy="712.5" r="4.6"/>
		<circle cx="644.9" cy="688.7" r="4.5"/>
		<circle cx="644.9" cy="665" r="4.3"/>
		<circle cx="644.9" cy="641.3" r="4.2"/>
		<circle cx="644.9" cy="617.5" r="4"/>
		<circle cx="644.9" cy="593.8" r="3.9"/>
		<circle cx="644.9" cy="570.1" r="3.7"/>
		<circle cx="644.9" cy="546.4" r="3.6"/>
		<circle cx="644.9" cy="522.6" r="3.4"/>
		<circle cx="644.9" cy="498.9" r="3.3"/>
		<circle cx="644.9" cy="475.2" r="3.1"/>
		<circle cx="644.9" cy="451.5" r="3"/>
		<circle cx="644.9" cy="427.7" r="2.8"/>
		<circle cx="644.9" cy="404" r="2.7"/>
		<circle cx="644.9" cy="380.3" r="2.5"/>
		<circle cx="644.9" cy="356.5" r="2.4"/>
		<circle cx="644.9" cy="332.8" r="2.2"/>
		<circle cx="644.9" cy="309.1" r="2.1"/>
		<circle cx="644.9" cy="285.4" r="1.9"/>
		<circle cx="644.9" cy="261.6" r="1.8"/>
		<circle cx="644.9" cy="237.9" r="1.6"/>
		<circle cx="644.9" cy="214.2" r="1.5"/>
		<circle cx="644.9" cy="190.5" r="1.3"/>
		<circle cx="644.9" cy="166.7" r="1.2"/>
		<circle cx="644.9" cy="143" r="1"/>
	</g>
	<g>
		<circle cx="621.1" cy="783.9" r="4.9"/>
		<circle cx="621.1" cy="760.2" r="4.8"/>
		<circle cx="621.1" cy="736.5" r="4.6"/>
		<circle cx="621.1" cy="712.7" r="4.5"/>
		<circle cx="621.1" cy="689" r="4.3"/>
		<circle cx="621.1" cy="665.3" r="4.2"/>
		<circle cx="621.1" cy="641.5" r="4"/>
		<circle cx="621.1" cy="617.8" r="3.9"/>
		<circle cx="621.1" cy="594.1" r="3.7"/>
		<circle cx="621.1" cy="570.4" r="3.6"/>
		<circle cx="621.1" cy="546.6" r="3.4"/>
		<circle cx="621.1" cy="522.9" r="3.3"/>
		<circle cx="621.1" cy="499.2" r="3.1"/>
		<circle cx="621.1" cy="475.5" r="3"/>
		<circle cx="621.1" cy="451.7" r="2.8"/>
		<circle cx="621.1" cy="428" r="2.7"/>
		<circle cx="621.1" cy="404.3" r="2.5"/>
		<circle cx="621.1" cy="380.5" r="2.4"/>
		<circle cx="621.1" cy="356.8" r="2.2"/>
		<circle cx="621.1" cy="333.1" r="2.1"/>
		<circle cx="621.1" cy="309.4" r="1.9"/>
		<circle cx="621.1" cy="285.6" r="1.8"/>
		<circle cx="621.1" cy="261.9" r="1.6"/>
		<circle cx="621.1" cy="238.2" r="1.5"/>
		<circle cx="621.1" cy="214.5" r="1.3"/>
		<circle cx="621.1" cy="190.7" r="1.2"/>
		<circle cx="621.1" cy="167" r="1"/>
	</g>
	<g>
		<circle cx="597.2" cy="784.2" r="4.8"/>
		<circle cx="597.2" cy="760.5" r="4.6"/>
		<circle cx="597.2" cy="736.7" r="4.5"/>
		<circle cx="597.2" cy="713" r="4.3"/>
		<circle cx="597.2" cy="689.3" r="4.2"/>
		<circle cx="597.2" cy="665.5" r="4"/>
		<circle cx="597.2" cy="641.8" r="3.9"/>
		<circle cx="597.2" cy="618.1" r="3.7"/>
		<circle cx="597.2" cy="594.4" r="3.6"/>
		<circle cx="597.2" cy="570.6" r="3.4"/>
		<circle cx="597.2" cy="546.9" r="3.3"/>
		<circle cx="597.2" cy="523.2" r="3.1"/>
		<circle cx="597.2" cy="499.5" r="3"/>
		<circle cx="597.2" cy="475.7" r="2.8"/>
		<circle cx="597.2" cy="452" r="2.7"/>
		<circle cx="597.2" cy="428.3" r="2.5"/>
		<circle cx="597.2" cy="404.5" r="2.4"/>
		<circle cx="597.2" cy="380.8" r="2.2"/>
		<circle cx="597.2" cy="357.1" r="2.1"/>
		<circle cx="597.2" cy="333.4" r="1.9"/>
		<circle cx="597.2" cy="309.6" r="1.8"/>
		<circle cx="597.2" cy="285.9" r="1.6"/>
		<circle cx="597.2" cy="262.2" r="1.5"/>
		<circle cx="597.2" cy="238.5" r="1.3"/>
		<circle cx="597.2" cy="214.7" r="1.2"/>
		<circle cx="597.2" cy="191" r="1"/>
	</g>
	<g>
		<circle cx="573.4" cy="784.5" r="4.6"/>
		<circle cx="573.4" cy="760.7" r="4.5"/>
		<circle cx="573.4" cy="737" r="4.3"/>
		<circle cx="573.4" cy="713.3" r="4.2"/>
		<circle cx="573.4" cy="689.5" r="4"/>
		<circle cx="573.4" cy="665.8" r="3.9"/>
		<circle cx="573.4" cy="642.1" r="3.7"/>
		<circle cx="573.4" cy="618.4" r="3.6"/>
		<circle cx="573.4" cy="594.6" r="3.4"/>
		<circle cx="573.4" cy="570.9" r="3.3"/>
		<circle cx="573.4" cy="547.2" r="3.1"/>
		<circle cx="573.4" cy="523.5" r="3"/>
		<circle cx="573.4" cy="499.7" r="2.8"/>
		<circle cx="573.4" cy="476" r="2.7"/>
		<circle cx="573.4" cy="452.3" r="2.5"/>
		<circle cx="573.4" cy="428.5" r="2.4"/>
		<circle cx="573.4" cy="404.8" r="2.2"/>
		<circle cx="573.4" cy="381.1" r="2.1"/>
		<circle cx="573.4" cy="357.4" r="1.9"/>
		<circle cx="573.4" cy="333.6" r="1.8"/>
		<circle cx="573.4" cy="309.9" r="1.6"/>
		<circle cx="573.4" cy="286.2" r="1.5"/>
		<circle cx="573.4" cy="262.5" r="1.3"/>
		<circle cx="573.4" cy="238.7" r="1.2"/>
		<circle cx="573.4" cy="215" r="1"/>
	</g>
	<g>
		<circle cx="549.5" cy="784.7" r="4.5"/>
		<circle cx="549.5" cy="761" r="4.3"/>
		<circle cx="549.5" cy="737.3" r="4.2"/>
		<circle cx="549.5" cy="713.5" r="4"/>
		<circle cx="549.5" cy="689.8" r="3.9"/>
		<circle cx="549.5" cy="666.1" r="3.7"/>
		<circle cx="549.5" cy="642.4" r="3.6"/>
		<circle cx="549.5" cy="618.6" r="3.4"/>
		<circle cx="549.5" cy="594.9" r="3.3"/>
		<circle cx="549.5" cy="571.2" r="3.1"/>
		<circle cx="549.5" cy="547.5" r="3"/>
		<circle cx="549.5" cy="523.7" r="2.8"/>
		<circle cx="549.5" cy="500" r="2.7"/>
		<circle cx="549.5" cy="476.3" r="2.5"/>
		<circle cx="549.5" cy="452.5" r="2.4"/>
		<circle cx="549.5" cy="428.8" r="2.2"/>
		<circle cx="549.5" cy="405.1" r="2.1"/>
		<circle cx="549.5" cy="381.4" r="1.9"/>
		<circle cx="549.5" cy="357.6" r="1.8"/>
		<circle cx="549.5" cy="333.9" r="1.6"/>
		<circle cx="549.5" cy="310.2" r="1.5"/>
		<circle cx="549.5" cy="286.5" r="1.3"/>
		<circle cx="549.5" cy="262.7" r="1.2"/>
		<circle cx="549.5" cy="239" r="1"/>
	</g>
	<g>
		<circle cx="525.7" cy="785" r="4.3"/>
		<circle cx="525.7" cy="761.3" r="4.2"/>
		<circle cx="525.7" cy="737.5" r="4"/>
		<circle cx="525.7" cy="713.8" r="3.9"/>
		<circle cx="525.7" cy="690.1" r="3.7"/>
		<circle cx="525.7" cy="666.4" r="3.6"/>
		<circle cx="525.7" cy="642.6" r="3.4"/>
		<circle cx="525.7" cy="618.9" r="3.3"/>
		<circle cx="525.7" cy="595.2" r="3.1"/>
		<circle cx="525.7" cy="571.5" r="3"/>
		<circle cx="525.7" cy="547.7" r="2.8"/>
		<circle cx="525.7" cy="524" r="2.7"/>
		<circle cx="525.7" cy="500.3" r="2.5"/>
		<circle cx="525.7" cy="476.5" r="2.4"/>
		<circle cx="525.7" cy="452.8" r="2.2"/>
		<circle cx="525.7" cy="429.1" r="2.1"/>
		<circle cx="525.7" cy="405.4" r="1.9"/>
		<circle cx="525.7" cy="381.6" r="1.8"/>
		<circle cx="525.7" cy="357.9" r="1.6"/>
		<circle cx="525.7" cy="334.2" r="1.5"/>
		<circle cx="525.7" cy="310.5" r="1.3"/>
		<circle cx="525.7" cy="286.7" r="1.2"/>
		<circle cx="525.7" cy="263" r="1"/>
	</g>
	<g>
		<circle cx="501.8" cy="785.3" r="4.2"/>
		<circle cx="501.8" cy="761.5" r="4"/>
		<circle cx="501.8" cy="737.8" r="3.9"/>
		<circle cx="501.8" cy="714.1" r="3.7"/>
		<circle cx="501.8" cy="690.4" r="3.6"/>
		<circle cx="501.8" cy="666.6" r="3.4"/>
		<circle cx="501.8" cy="642.9" r="3.3"/>
		<circle cx="501.8" cy="619.2" r="3.1"/>
		<circle cx="501.8" cy="595.5" r="3"/>
		<circle cx="501.8" cy="571.7" r="2.8"/>
		<circle cx="501.8" cy="548" r="2.7"/>
		<circle cx="501.8" cy="524.3" r="2.5"/>
		<circle cx="501.8" cy="500.5" r="2.4"/>
		<circle cx="501.8" cy="476.8" r="2.2"/>
		<circle cx="501.8" cy="453.1" r="2.1"/>
		<circle cx="501.8" cy="429.4" r="1.9"/>
		<circle cx="501.8" cy="405.6" r="1.8"/>
		<circle cx="501.8" cy="381.9" r="1.6"/>
		<circle cx="501.8" cy="358.2" r="1.5"/>
		<circle cx="501.8" cy="334.5" r="1.3"/>
		<circle cx="501.8" cy="310.7" r="1.2"/>
		<circle cx="501.8" cy="287" r="1"/>
	</g>
	<g>
		<circle cx="478" cy="785.5" r="4"/>
		<circle cx="478" cy="761.8" r="3.9"/>
		<circle cx="478" cy="738.1" r="3.7"/>
		<circle cx="478" cy="714.4" r="3.6"/>
		<circle cx="478" cy="690.6" r="3.4"/>
		<circle cx="478" cy="666.9" r="3.3"/>
		<circle cx="478" cy="643.2" r="3.1"/>
		<circle cx="478" cy="619.5" r="3"/>
		<circle cx="478" cy="595.7" r="2.8"/>
		<circle cx="478" cy="572" r="2.7"/>
		<circle cx="478" cy="548.3" r="2.5"/>
		<circle cx="478" cy="524.5" r="2.4"/>
		<circle cx="478" cy="500.8" r="2.2"/>
		<circle cx="478" cy="477.1" r="2.1"/>
		<circle cx="478" cy="453.4" r="1.9"/>
		<circle cx="478" cy="429.6" r="1.8"/>
		<circle cx="478" cy="405.9" r="1.6"/>
		<circle cx="478" cy="382.2" r="1.5"/>
		<circle cx="478" cy="358.5" r="1.3"/>
		<circle cx="478" cy="334.7" r="1.2"/>
		<circle cx="478" cy="311" r="1"/>
	</g>
	<g>
		<circle cx="454.1" cy="785.8" r="3.9"/>
		<circle cx="454.1" cy="762.1" r="3.7"/>
		<circle cx="454.1" cy="738.4" r="3.6"/>
		<circle cx="454.1" cy="714.6" r="3.4"/>
		<circle cx="454.1" cy="690.9" r="3.3"/>
		<circle cx="454.1" cy="667.2" r="3.1"/>
		<circle cx="454.1" cy="643.5" r="3"/>
		<circle cx="454.1" cy="619.7" r="2.8"/>
		<circle cx="454.1" cy="596" r="2.7"/>
		<circle cx="454.1" cy="572.3" r="2.5"/>
		<circle cx="454.1" cy="548.5" r="2.4"/>
		<circle cx="454.1" cy="524.8" r="2.2"/>
		<circle cx="454.1" cy="501.1" r="2.1"/>
		<circle cx="454.1" cy="477.4" r="1.9"/>
		<circle cx="454.1" cy="453.6" r="1.8"/>
		<circle cx="454.1" cy="429.9" r="1.6"/>
		<circle cx="454.1" cy="406.2" r="1.5"/>
		<circle cx="454.1" cy="382.5" r="1.3"/>
		<circle cx="454.1" cy="358.7" r="1.2"/>
		<circle cx="454.1" cy="335" r="1"/>
	</g>
	<g>
		<circle cx="430.3" cy="786.1" r="3.7"/>
		<circle cx="430.3" cy="762.4" r="3.6"/>
		<circle cx="430.3" cy="738.6" r="3.4"/>
		<circle cx="430.3" cy="714.9" r="3.3"/>
		<circle cx="430.3" cy="691.2" r="3.1"/>
		<circle cx="430.3" cy="667.5" r="3"/>
		<circle cx="430.3" cy="643.7" r="2.8"/>
		<circle cx="430.3" cy="620" r="2.7"/>
		<circle cx="430.3" cy="596.3" r="2.5"/>
		<circle cx="430.3" cy="572.5" r="2.4"/>
		<circle cx="430.3" cy="548.8" r="2.2"/>
		<circle cx="430.3" cy="525.1" r="2.1"/>
		<circle cx="430.3" cy="501.4" r="1.9"/>
		<circle cx="430.3" cy="477.6" r="1.8"/>
		<circle cx="430.3" cy="453.9" r="1.6"/>
		<circle cx="430.3" cy="430.2" r="1.5"/>
		<circle cx="430.3" cy="406.5" r="1.3"/>
		<circle cx="430.3" cy="382.7" r="1.2"/>
		<circle cx="430.3" cy="359" r="1"/>
	</g>
	<g>
		<circle cx="406.4" cy="786.4" r="3.6"/>
		<circle cx="406.4" cy="762.6" r="3.4"/>
		<circle cx="406.4" cy="738.9" r="3.3"/>
		<circle cx="406.4" cy="715.2" r="3.1"/>
		<circle cx="406.4" cy="691.5" r="3"/>
		<circle cx="406.4" cy="667.7" r="2.8"/>
		<circle cx="406.4" cy="644" r="2.7"/>
		<circle cx="406.4" cy="620.3" r="2.5"/>
		<circle cx="406.4" cy="596.5" r="2.4"/>
		<circle cx="406.4" cy="572.8" r="2.2"/>
		<circle cx="406.4" cy="549.1" r="2.1"/>
		<circle cx="406.4" cy="525.4" r="1.9"/>
		<circle cx="406.4" cy="501.6" r="1.8"/>
		<circle cx="406.4" cy="477.9" r="1.6"/>
		<circle cx="406.4" cy="454.2" r="1.5"/>
		<circle cx="406.4" cy="430.5" r="1.3"/>
		<circle cx="406.4" cy="406.7" r="1.2"/>
		<circle cx="406.4" cy="383" r="1"/>
	</g>
	<g>
		<circle cx="382.6" cy="786.6" r="3.4"/>
		<circle cx="382.6" cy="762.9" r="3.3"/>
		<circle cx="382.6" cy="739.2" r="3.1"/>
		<circle cx="382.6" cy="715.5" r="3"/>
		<circle cx="382.6" cy="691.7" r="2.8"/>
		<circle cx="382.6" cy="668" r="2.7"/>
		<circle cx="382.6" cy="644.3" r="2.5"/>
		<circle cx="382.6" cy="620.5" r="2.4"/>
		<circle cx="382.6" cy="596.8" r="2.2"/>
		<circle cx="382.6" cy="573.1" r="2.1"/>
		<circle cx="382.6" cy="549.4" r="1.9"/>
		<circle cx="382.6" cy="525.6" r="1.8"/>
		<circle cx="382.6" cy="501.9" r="1.6"/>
		<circle cx="382.6" cy="478.2" r="1.5"/>
		<circle cx="382.6" cy="454.5" r="1.3"/>
		<circle cx="382.6" cy="430.7" r="1.2"/>
		<circle cx="382.6" cy="407" r="1"/>
	</g>
	<g>
		<circle cx="358.7" cy="785.9" r="3.3"/>
		<circle cx="358.7" cy="762.2" r="3.1"/>
		<circle cx="358.7" cy="738.5" r="3"/>
		<circle cx="358.7" cy="714.7" r="2.8"/>
		<circle cx="358.7" cy="691" r="2.7"/>
		<circle cx="358.7" cy="667.3" r="2.5"/>
		<circle cx="358.7" cy="643.5" r="2.4"/>
		<circle cx="358.7" cy="619.8" r="2.2"/>
		<circle cx="358.7" cy="596.1" r="2.1"/>
		<circle cx="358.7" cy="572.4" r="1.9"/>
		<circle cx="358.7" cy="548.6" r="1.8"/>
		<circle cx="358.7" cy="524.9" r="1.6"/>
		<circle cx="358.7" cy="501.2" r="1.5"/>
		<circle cx="358.7" cy="477.5" r="1.3"/>
		<circle cx="358.7" cy="453.7" r="1.2"/>
		<circle cx="358.7" cy="430" r="1"/>
	</g>
	<g>
		<circle cx="334.9" cy="786.2" r="3.1"/>
		<circle cx="334.9" cy="762.5" r="3"/>
		<circle cx="334.9" cy="738.7" r="2.8"/>
		<circle cx="334.9" cy="715" r="2.7"/>
		<circle cx="334.9" cy="691.3" r="2.5"/>
		<circle cx="334.9" cy="667.5" r="2.4"/>
		<circle cx="334.9" cy="643.8" r="2.2"/>
		<circle cx="334.9" cy="620.1" r="2.1"/>
		<circle cx="334.9" cy="596.4" r="1.9"/>
		<circle cx="334.9" cy="572.6" r="1.8"/>
		<circle cx="334.9" cy="548.9" r="1.6"/>
		<circle cx="334.9" cy="525.2" r="1.5"/>
		<circle cx="334.9" cy="501.5" r="1.3"/>
		<circle cx="334.9" cy="477.7" r="1.2"/>
		<circle cx="334.9" cy="454" r="1"/>
	</g>
	<g>
		<circle cx="311" cy="786.5" r="3"/>
		<circle cx="311" cy="762.7" r="2.8"/>
		<circle cx="311" cy="739" r="2.7"/>
		<circle cx="311" cy="715.3" r="2.5"/>
		<circle cx="311" cy="691.5" r="2.4"/>
		<circle cx="311" cy="667.8" r="2.2"/>
		<circle cx="311" cy="644.1" r="2.1"/>
		<circle cx="311" cy="620.4" r="1.9"/>
		<circle cx="311" cy="596.6" r="1.8"/>
		<circle cx="311" cy="572.9" r="1.6"/>
		<circle cx="311" cy="549.2" r="1.5"/>
		<circle cx="311" cy="525.5" r="1.3"/>
		<circle cx="311" cy="501.7" r="1.2"/>
		<circle cx="311" cy="478" r="1"/>
	</g>
	<g>
		<circle cx="287.2" cy="785.7" r="2.8"/>
		<circle cx="287.2" cy="762" r="2.7"/>
		<circle cx="287.2" cy="738.3" r="2.5"/>
		<circle cx="287.2" cy="714.5" r="2.4"/>
		<circle cx="287.2" cy="690.8" r="2.2"/>
		<circle cx="287.2" cy="667.1" r="2.1"/>
		<circle cx="287.2" cy="643.4" r="1.9"/>
		<circle cx="287.2" cy="619.6" r="1.8"/>
		<circle cx="287.2" cy="595.9" r="1.6"/>
		<circle cx="287.2" cy="572.2" r="1.5"/>
		<circle cx="287.2" cy="548.5" r="1.3"/>
		<circle cx="287.2" cy="524.7" r="1.2"/>
		<circle cx="287.2" cy="501" r="1"/>
	</g>
	<g>
		<circle cx="263.3" cy="786" r="2.7"/>
		<circle cx="263.3" cy="762.3" r="2.5"/>
		<circle cx="263.3" cy="738.5" r="2.4"/>
		<circle cx="263.3" cy="714.8" r="2.2"/>
		<circle cx="263.3" cy="691.1" r="2.1"/>
		<circle cx="263.3" cy="667.4" r="1.9"/>
		<circle cx="263.3" cy="643.6" r="1.8"/>
		<circle cx="263.3" cy="619.9" r="1.6"/>
		<circle cx="263.3" cy="596.2" r="1.5"/>
		<circle cx="263.3" cy="572.5" r="1.3"/>
		<circle cx="263.3" cy="548.7" r="1.2"/>
		<circle cx="263.3" cy="525" r="1"/>
	</g>
	<g>
		<circle cx="239.5" cy="786.3" r="2.5"/>
		<circle cx="239.5" cy="762.5" r="2.4"/>
		<circle cx="239.5" cy="738.8" r="2.2"/>
		<circle cx="239.5" cy="715.1" r="2.1"/>
		<circle cx="239.5" cy="691.4" r="1.9"/>
		<circle cx="239.5" cy="667.6" r="1.8"/>
		<circle cx="239.5" cy="643.9" r="1.6"/>
		<circle cx="239.5" cy="620.2" r="1.5"/>
		<circle cx="239.5" cy="596.5" r="1.3"/>
		<circle cx="239.5" cy="572.7" r="1.2"/>
		<circle cx="239.5" cy="549" r="1"/>
	</g>
	<g>
		<circle cx="215.6" cy="786.5" r="2.4"/>
		<circle cx="215.6" cy="762.8" r="2.2"/>
		<circle cx="215.6" cy="739.1" r="2.1"/>
		<circle cx="215.6" cy="715.4" r="1.9"/>
		<circle cx="215.6" cy="691.6" r="1.8"/>
		<circle cx="215.6" cy="667.9" r="1.6"/>
		<circle cx="215.6" cy="644.2" r="1.5"/>
		<circle cx="215.6" cy="620.5" r="1.3"/>
		<circle cx="215.6" cy="596.7" r="1.2"/>
		<circle cx="215.6" cy="573" r="1"/>
	</g>
	<g>
		<circle cx="191.8" cy="786.8" r="2.2"/>
		<circle cx="191.8" cy="763.1" r="2.1"/>
		<circle cx="191.8" cy="739.4" r="1.9"/>
		<circle cx="191.8" cy="715.6" r="1.8"/>
		<circle cx="191.8" cy="691.9" r="1.6"/>
		<circle cx="191.8" cy="668.2" r="1.5"/>
		<circle cx="191.8" cy="644.5" r="1.3"/>
		<circle cx="191.8" cy="620.7" r="1.2"/>
		<circle cx="191.8" cy="597" r="1"/>
	</g>
	<g>
		<circle cx="167.9" cy="787.1" r="2.1"/>
		<circle cx="167.9" cy="763.4" r="1.9"/>
		<circle cx="167.9" cy="739.6" r="1.8"/>
		<circle cx="167.9" cy="715.9" r="1.6"/>
		<circle cx="167.9" cy="692.2" r="1.5"/>
		<circle cx="167.9" cy="668.5" r="1.3"/>
		<circle cx="167.9" cy="644.7" r="1.2"/>
		<circle cx="167.9" cy="621" r="1"/>
	</g>
	<g>
		<circle cx="144.1" cy="787.4" r="1.9"/>
		<circle cx="144.1" cy="763.6" r="1.8"/>
		<circle cx="144.1" cy="739.9" r="1.6"/>
		<circle cx="144.1" cy="716.2" r="1.5"/>
		<circle cx="144.1" cy="692.5" r="1.3"/>
		<circle cx="144.1" cy="668.7" r="1.2"/>
		<circle cx="144.1" cy="645" r="1"/>
	</g>
	<g>
		<circle cx="120.2" cy="787.6" r="1.8"/>
		<circle cx="120.2" cy="763.9" r="1.6"/>
		<circle cx="120.2" cy="740.2" r="1.5"/>
		<circle cx="120.2" cy="716.5" r="1.3"/>
		<circle cx="120.2" cy="692.7" r="1.2"/>
		<circle cx="120.2" cy="669" r="1"/>
	</g>
	<g>
		<circle cx="96.4" cy="787.9" r="1.6"/>
		<circle cx="96.4" cy="764.2" r="1.5"/>
		<circle cx="96.4" cy="740.5" r="1.3"/>
		<circle cx="96.4" cy="716.7" r="1.2"/>
		<circle cx="96.4" cy="693" r="1"/>
	</g>
	<g>
		<circle cx="72.5" cy="788.2" r="1.5"/>
		<circle cx="72.5" cy="764.5" r="1.3"/>
		<circle cx="72.5" cy="740.7" r="1.2"/>
		<circle cx="72.5" cy="717" r="1"/>
	</g>
	<g>
		<circle cx="48.7" cy="788.5" r="1.3"/>
		<circle cx="48.7" cy="764.7" r="1.2"/>
		<circle cx="48.7" cy="741" r="1"/>
	</g>
	<g>
		<circle cx="24.8" cy="788.7" r="1.2"/>
		<circle cx="24.8" cy="765" r="1"/>
	</g>
	<g>
		<circle cx="1" cy="789" r="1"/>
	</g>
</g>
</svg>
