<?xml version="1.0" encoding="utf-8"?>
<!-- Generator: Adobe Illustrator 23.0.4, SVG Export Plug-In . SVG Version: 6.00 Build 0)  -->
<svg version="1.1" id="Layer_1" xmlns="http://www.w3.org/2000/svg" xmlns:xlink="http://www.w3.org/1999/xlink" x="0px" y="0px"
	 viewBox="0 0 211.8 40.6" style="enable-background:new 0 0 211.8 40.6;" xml:space="preserve">
<style type="text/css">
	.st0{enable-background:new    ;}
	.st1{fill:#222222;}
</style>
<title>Asset 1</title>
<g>
	<g id="Layer_1-2">
		<g class="st0">
			<path class="st1" d="M12.3,8v12.2c1,0,2-0.2,2.7-0.7c0.8-0.4,1.4-1,1.8-1.7s0.8-1.5,1.1-2.4c0.2-0.9,0.3-1.7,0.3-2.6
				c0-0.8-0.1-1.6-0.2-2.4c-0.2-0.8-0.5-1.6-1-2.2c-0.5-0.7-1.2-1.2-2.2-1.7c-0.9-0.4-2.2-0.7-3.7-0.7C10,5.9,9,6,8.1,6.4
				S6.4,7.1,5.7,7.8C5,8.4,4.4,9.1,4,10c-0.4,0.9-0.6,1.9-0.6,3.1c0,0.7,0.1,1.4,0.2,1.9c0.1,0.5,0.3,0.9,0.4,1.3
				c0.2,0.3,0.3,0.6,0.5,0.8c0.2,0.2,0.3,0.3,0.4,0.4c-1.3,0-2.4-0.3-3.2-1c-0.8-0.7-1.2-1.8-1.2-3.3c0-1.2,0.3-2.2,0.9-3.3
				C2.1,8.8,3,7.9,4,7.1c1-0.8,2.2-1.4,3.5-1.9c1.3-0.5,2.7-0.7,4.2-0.7c1.6,0,3,0.2,4.2,0.6c1.2,0.4,2.3,0.9,3.1,1.7
				c0.8,0.7,1.5,1.5,1.9,2.5c0.4,0.9,0.7,1.9,0.7,3c0,1-0.2,2-0.5,3.1c-0.4,1.1-0.9,2-1.6,2.9s-1.6,1.6-2.7,2.1
				c-1.1,0.6-2.3,0.8-3.7,0.8h-0.8v10.3H8.4V8.5L12.3,8z"/>
		</g>
		<g class="st0">
			<path class="st1" d="M35.4,13.6v12.2c0,0.2,0,0.5,0,0.9c0,0.4,0.1,0.7,0.2,1.1c0.1,0.3,0.3,0.6,0.5,0.9c0.2,0.3,0.5,0.4,0.9,0.4
				c1.2,0,2-1.3,2.6-3.9h1.3c-0.3,1.5-0.6,2.7-1,3.6c-0.4,0.9-0.8,1.5-1.3,2c-0.5,0.5-0.9,0.8-1.4,0.9c-0.5,0.1-0.9,0.2-1.3,0.2
				c-0.6,0-1-0.1-1.4-0.3c-0.4-0.2-0.7-0.4-1-0.8c-0.3-0.3-0.5-0.7-0.7-1.1c-0.2-0.4-0.3-0.8-0.4-1.3c-0.4,0.9-0.9,1.7-1.7,2.4
				c-0.8,0.7-1.8,1-2.9,1c-0.7,0-1.4-0.1-2.2-0.4c-0.7-0.3-1.4-0.8-2-1.4c-0.6-0.7-1.1-1.5-1.4-2.6c-0.4-1-0.6-2.3-0.6-3.8
				c0-1.1,0.1-2.3,0.4-3.5c0.3-1.2,0.7-2.3,1.2-3.3c0.6-1,1.3-1.8,2.1-2.4c0.9-0.6,1.9-1,3.1-1c0.3,0,0.6,0,0.9,0.1
				c0.3,0.1,0.6,0.2,0.9,0.3c0.3,0.1,0.6,0.3,0.8,0.6s0.5,0.5,0.6,0.9v-1.7H35.4z M28.7,29.1c0.4,0,0.7-0.1,1.1-0.3
				c0.4-0.2,0.7-0.5,1-0.8c0.3-0.3,0.5-0.8,0.7-1.2c0.2-0.5,0.3-1,0.3-1.6v-8.2c-0.2-0.4-0.4-0.7-0.8-1.1c-0.3-0.3-0.8-0.5-1.4-0.5
				c-0.8,0-1.4,0.3-2,0.8c-0.6,0.5-1,1.2-1.3,1.9c-0.3,0.8-0.6,1.6-0.7,2.6c-0.2,0.9-0.2,1.8-0.2,2.7c0,2.1,0.3,3.5,0.8,4.4
				C26.8,28.6,27.6,29.1,28.7,29.1z"/>
			<path class="st1" d="M43.2,8.1v5.5H46v1.3h-2.8v11c0,0.3,0,0.6,0,1c0,0.4,0.1,0.7,0.2,1.1c0.1,0.3,0.3,0.6,0.5,0.8
				c0.2,0.2,0.5,0.3,1,0.3c0.6,0,1.3-0.3,1.9-1c0.6-0.6,1-1.6,1.4-3h1.3c-0.4,1.5-0.8,2.7-1.3,3.6c-0.5,0.9-1,1.5-1.5,2
				c-0.5,0.5-1,0.8-1.5,0.9c-0.5,0.1-0.9,0.2-1.4,0.2c-0.9,0-1.6-0.2-2.1-0.5c-0.6-0.3-1-0.7-1.3-1.2c-0.3-0.5-0.5-1.1-0.6-1.7
				c-0.1-0.6-0.2-1.2-0.2-1.8V14.9h-1.2v-1.3h1.2v-5L43.2,8.1z"/>
			<path class="st1" d="M51.7,13.6v3c0.3-0.4,0.6-0.8,0.8-1.2c0.3-0.4,0.6-0.7,0.9-1c0.3-0.3,0.7-0.5,1.1-0.7
				c0.4-0.2,0.9-0.3,1.4-0.3c0.8,0,1.4,0.2,1.8,0.6c0.4,0.4,0.6,0.9,0.6,1.5c0,0.4-0.1,0.7-0.2,0.9c-0.1,0.2-0.3,0.4-0.4,0.6
				c-0.2,0.1-0.3,0.2-0.5,0.3c-0.2,0.1-0.4,0.1-0.5,0.1c-0.2,0-0.4,0-0.5-0.1c-0.1-0.1-0.3-0.2-0.4-0.3c-0.1-0.1-0.3-0.2-0.5-0.3
				c-0.2-0.1-0.4-0.1-0.6-0.1c-0.6,0-1.1,0.2-1.6,0.6s-1,0.8-1.4,1.2v13.2h-3.6v-18H51.7z"/>
			<path class="st1" d="M63.8,13.6v12.2c0,0.2,0,0.5,0,0.9c0,0.4,0.1,0.7,0.2,1.1s0.3,0.6,0.5,0.9c0.2,0.3,0.5,0.4,0.9,0.4
				c1.2,0,2-1.3,2.6-3.9h1.3c-0.3,1.5-0.6,2.7-1,3.6c-0.4,0.9-0.8,1.5-1.3,2c-0.5,0.5-0.9,0.8-1.4,0.9c-0.5,0.1-0.9,0.2-1.3,0.2
				c-0.8,0-1.5-0.2-2.1-0.5c-0.5-0.3-0.9-0.7-1.3-1.2c-0.3-0.5-0.5-1.1-0.6-1.7c-0.1-0.6-0.2-1.2-0.2-1.8v-13H63.8z M62.8,4.6h3.1
				L63,11.4h-2L62.8,4.6z"/>
			<path class="st1" d="M76.1,19.1c0.2-0.2,0.3-0.4,0.4-0.8c0.1-0.4,0.2-0.7,0.2-1.1c0-0.5-0.2-1-0.5-1.4c-0.3-0.4-0.8-0.5-1.5-0.5
				c-0.6,0-1.2,0.2-1.6,0.7c-0.4,0.5-0.8,1.1-1,1.8c-0.3,0.7-0.4,1.5-0.6,2.4c-0.1,0.9-0.2,1.8-0.2,2.6c0,1.3,0.1,2.3,0.3,3.1
				c0.2,0.8,0.5,1.4,0.9,1.8c0.4,0.4,0.8,0.7,1.4,0.9c0.5,0.2,1.1,0.3,1.6,0.3c1.3,0,2.3-0.3,3.2-1c0.9-0.6,1.6-1.6,2.2-3h1.2
				c-0.3,0.9-0.7,1.7-1.2,2.5c-0.5,0.8-1.1,1.5-1.8,2.1c-0.7,0.6-1.5,1.1-2.3,1.5c-0.8,0.4-1.7,0.5-2.6,0.5c-0.8,0-1.7-0.1-2.5-0.4
				s-1.5-0.8-2.2-1.4s-1.2-1.5-1.6-2.6c-0.4-1.1-0.6-2.4-0.6-3.9c0-1,0.1-2.1,0.3-3.3c0.2-1.2,0.5-2.2,1-3.2c0.5-1,1.2-1.8,2-2.5
				c0.9-0.7,2-1,3.3-1c1.5,0,2.7,0.4,3.5,1.1c0.8,0.7,1.2,1.8,1.2,3.2c0,0.6-0.1,1.1-0.3,1.5c-0.2,0.4-0.6,0.6-1.1,0.6
				C76.9,19.8,76.5,19.6,76.1,19.1z"/>
			<path class="st1" d="M80.5,8.4c0-0.6,0.2-1.2,0.7-1.7c0.5-0.5,1-0.7,1.7-0.7c0.6,0,1.2,0.2,1.7,0.7c0.5,0.5,0.7,1,0.7,1.7
				c0,0.7-0.2,1.2-0.7,1.7c-0.5,0.5-1,0.7-1.7,0.7c-0.7,0-1.2-0.2-1.7-0.7C80.7,9.6,80.5,9.1,80.5,8.4z M84.7,13.6v12.2
				c0,0.2,0,0.5,0,0.9c0,0.4,0.1,0.7,0.2,1.1s0.3,0.6,0.5,0.9c0.2,0.3,0.5,0.4,0.9,0.4c1.2,0,2-1.3,2.6-3.9h1.3
				c-0.3,1.5-0.6,2.7-1,3.6c-0.4,0.9-0.8,1.5-1.3,2c-0.5,0.5-0.9,0.8-1.4,0.9c-0.5,0.1-0.9,0.2-1.3,0.2c-0.8,0-1.5-0.2-2.1-0.5
				c-0.5-0.3-0.9-0.7-1.3-1.2c-0.3-0.5-0.5-1.1-0.6-1.7c-0.1-0.6-0.2-1.2-0.2-1.8v-13H84.7z"/>
			<path class="st1" d="M102.2,13.6v12.2c0,0.3,0,0.6,0,1c0,0.4,0.1,0.7,0.2,1.1c0.1,0.3,0.3,0.6,0.5,0.8c0.2,0.2,0.6,0.3,1,0.3
				c0.2,0,0.4,0,0.6-0.1s0.4-0.1,0.6-0.1c0,0.1,0,0.2,0.1,0.3c0,0.1,0,0.2,0,0.3c0,0.7-0.3,1.3-0.8,1.7c-0.6,0.4-1.2,0.6-1.9,0.6
				c-0.7,0-1.4-0.3-2-0.8c-0.6-0.5-1-1.4-1.2-2.6c-0.4,0.9-0.9,1.7-1.8,2.4c-0.8,0.7-1.8,1-3,1c-0.7,0-1.4-0.2-2.2-0.5
				c-0.7-0.3-1.4-0.8-2-1.4c-0.6-0.6-1-1.5-1.4-2.5c-0.4-1-0.6-2.3-0.6-3.7c0-1.1,0.1-2.3,0.4-3.5c0.3-1.2,0.6-2.3,1.2-3.3
				c0.5-1,1.2-1.8,2.1-2.5c0.9-0.6,1.9-1,3.1-1c0.6,0,1.3,0.1,1.9,0.4c0.7,0.3,1.2,0.8,1.5,1.5v-1.7H102.2z M95.3,29.1
				c0.5,0,0.9-0.1,1.3-0.3c0.4-0.2,0.8-0.5,1.1-0.9c0.3-0.4,0.5-0.8,0.7-1.2c0.2-0.5,0.3-1,0.3-1.5v-8.2c-0.2-0.4-0.4-0.8-0.8-1.1
				c-0.3-0.3-0.8-0.5-1.4-0.5c-0.8,0-1.4,0.3-1.9,0.8c-0.5,0.5-1,1.2-1.3,2c-0.3,0.8-0.6,1.7-0.7,2.7c-0.2,1-0.2,1.9-0.2,2.8
				c0,2,0.3,3.4,0.9,4.2C93.7,28.6,94.4,29.1,95.3,29.1z"/>
			<path class="st1" d="M131.7,25.4c-0.3,1.1-0.8,2-1.5,2.9c-0.6,0.8-1.4,1.5-2.3,2.1s-1.8,1-2.8,1.3c-1,0.3-2,0.5-3.1,0.5
				c-1.4,0-2.5-0.2-3.5-0.7c-1-0.5-1.8-1.1-2.4-1.9c-0.6-0.8-1.1-1.6-1.3-2.6c-0.3-1-0.4-2-0.4-2.9c0-1.8,0.4-3.3,1.3-4.6
				c0.9-1.3,2-2.3,3.6-2.9c-1.2-0.7-2-1.5-2.5-2.5c-0.5-0.9-0.8-1.9-0.8-3c0-0.8,0.1-1.6,0.4-2.4c0.3-0.8,0.7-1.5,1.3-2.1
				c0.6-0.6,1.3-1.1,2.2-1.5c0.9-0.4,1.9-0.6,3.1-0.6c0.6,0,1.3,0.1,2,0.2c0.7,0.1,1.3,0.4,1.8,0.7c0.5,0.3,1,0.8,1.3,1.4
				s0.5,1.3,0.5,2.2c0,0.9-0.2,1.6-0.5,2.2c-0.4,0.5-0.8,0.8-1.4,0.8c-0.6,0-1.3-0.3-1.9-1c0.3-0.1,0.7-0.4,1-0.9
				c0.3-0.4,0.5-1,0.5-1.7c0-0.5-0.1-0.8-0.3-1.2c-0.2-0.3-0.4-0.6-0.7-0.8c-0.3-0.2-0.6-0.4-0.9-0.5c-0.3-0.1-0.7-0.1-1-0.1
				c-0.6,0-1.2,0.1-1.7,0.4c-0.5,0.3-0.9,0.7-1.3,1.1c-0.3,0.5-0.6,1-0.8,1.6s-0.3,1.2-0.3,1.8c0,0.3,0,0.7,0.1,1.2
				c0.1,0.5,0.2,1.1,0.5,1.7c0.3,0.6,0.7,1.2,1.2,1.7s1.3,0.9,2.2,1.1c-1.6,0.4-2.8,1.2-3.7,2.4c-0.9,1.3-1.3,2.8-1.3,4.5
				c0,1.7,0.5,3.1,1.4,4.3s2.3,1.7,4.3,1.7c0.9,0,1.7-0.1,2.4-0.3c0.7-0.2,1.4-0.5,1.9-0.9c0.6-0.4,1-0.9,1.5-1.4
				c0.4-0.5,0.7-1.1,0.9-1.6L131.7,25.4z"/>
			<path class="st1" d="M144.5,25.1c-0.7,1-1.4,1.8-2.1,2.4c-0.7,0.6-1.4,1.2-2.1,1.7c-0.3,0.5-0.6,0.9-1,1.2s-0.8,0.6-1.3,0.8
				c-0.5,0.2-0.9,0.4-1.4,0.5s-0.9,0.1-1.3,0.1c-1.1,0-1.9-0.2-2.6-0.5c-0.7-0.3-1.2-0.8-1.6-1.3c-0.4-0.5-0.7-1.1-0.9-1.7
				c-0.2-0.6-0.3-1.2-0.3-1.8c0-0.6,0.1-1.2,0.4-1.6s0.6-0.8,0.9-1c0.6-1.8,1.2-3.6,1.8-5.3c0.6-1.8,1-3.5,1.2-5.3l3.6-0.7
				c0.6,2.3,1,4.1,1.4,5.6c0.4,1.4,0.7,2.7,0.9,3.7c0.2,1,0.4,1.9,0.5,2.6c0.1,0.8,0.2,1.6,0.2,2.5c0.4-0.3,0.8-0.5,1.2-0.8
				c0.4-0.3,0.7-0.6,1-0.8H144.5z M137,26.6c0-0.7,0-1.4-0.1-2c-0.1-0.6-0.2-1.2-0.4-1.9s-0.4-1.5-0.6-2.5c-0.3-1-0.5-2.3-0.9-3.8
				c-0.1,1.3-0.4,2.6-0.9,3.9c-0.4,1.2-0.8,2.5-1.2,3.8c0.2,0.1,0.4,0.3,0.6,0.6s0.2,0.6,0.2,1c0,0.5-0.1,0.8-0.4,1
				c-0.2,0.2-0.5,0.4-0.8,0.4c-0.4,0-0.7-0.2-1-0.5c0.2,0.8,0.5,1.5,1,2c0.5,0.5,1.1,0.7,1.9,0.7c0.8,0,1.4-0.2,1.8-0.6
				C136.8,28.1,137,27.5,137,26.6z"/>
			<path class="st1" d="M146.6,8.1v5.5h2.8v1.3h-2.8v11c0,0.3,0,0.6,0,1c0,0.4,0.1,0.7,0.2,1.1c0.1,0.3,0.3,0.6,0.5,0.8
				c0.2,0.2,0.5,0.3,1,0.3c0.6,0,1.3-0.3,1.9-1c0.6-0.6,1-1.6,1.4-3h1.3c-0.4,1.5-0.8,2.7-1.3,3.6c-0.5,0.9-1,1.5-1.5,2
				c-0.5,0.5-1,0.8-1.5,0.9c-0.5,0.1-0.9,0.2-1.4,0.2c-0.9,0-1.6-0.2-2.1-0.5c-0.6-0.3-1-0.7-1.3-1.2s-0.5-1.1-0.6-1.7
				c-0.1-0.6-0.2-1.2-0.2-1.8V14.9h-1.2v-1.3h1.2v-5L146.6,8.1z"/>
			<path class="st1" d="M162.8,18.1c0,1.7-0.7,3.1-2.1,4.2c-1.4,1.1-3.3,1.8-5.7,2.1c0.1,1,0.3,1.7,0.5,2.3c0.3,0.6,0.6,1.1,0.9,1.4
				c0.4,0.3,0.8,0.6,1.2,0.7s1,0.2,1.5,0.2c1.2,0,2.2-0.3,3.2-0.9c1-0.6,1.8-1.6,2.4-3h1.2c-0.3,0.9-0.7,1.7-1.3,2.5
				c-0.6,0.8-1.2,1.5-1.9,2.1c-0.7,0.6-1.5,1.1-2.4,1.5c-0.9,0.4-1.8,0.5-2.7,0.5c-0.8,0-1.7-0.1-2.4-0.4c-0.8-0.3-1.5-0.8-2.1-1.4
				s-1.1-1.5-1.5-2.6c-0.4-1.1-0.6-2.4-0.6-3.9c0-1,0.1-2.1,0.3-3.3c0.2-1.2,0.6-2.3,1.2-3.3c0.5-1,1.2-1.8,2.1-2.5
				c0.9-0.7,2-1,3.3-1c0.6,0,1.2,0.1,1.7,0.2c0.6,0.1,1.1,0.4,1.5,0.7c0.5,0.3,0.8,0.8,1.1,1.4C162.6,16.3,162.8,17.1,162.8,18.1z
				 M154.9,23c1.7-0.3,3.1-0.9,4-1.8c1-0.9,1.5-2.1,1.5-3.5c0-0.9-0.2-1.6-0.5-2c-0.3-0.4-0.8-0.6-1.3-0.6c-0.6,0-1.2,0.2-1.6,0.7
				c-0.5,0.5-0.9,1.1-1.2,1.9c-0.3,0.8-0.5,1.6-0.7,2.5C155,21.2,154.9,22.1,154.9,23z"/>
			<path class="st1" d="M176.3,19.4c0,1.4-0.1,2.8-0.3,4.2c-0.2,1.5-0.6,2.8-1.1,4c-0.5,1.2-1.2,2.2-2.1,3c-0.8,0.8-1.9,1.2-3.1,1.2
				c-0.6,0-1.2-0.1-1.8-0.3c-0.6-0.2-1.1-0.5-1.6-0.9c-0.5-0.4-0.8-0.9-1.1-1.5c-0.3-0.6-0.4-1.3-0.4-2.1V13.6h3.6v12.2
				c0,0.4,0,0.8,0.1,1.2c0,0.4,0.1,0.7,0.3,1s0.4,0.5,0.6,0.7c0.3,0.2,0.6,0.3,1.1,0.3c0.7,0,1.4-0.3,1.9-0.8
				c0.5-0.5,0.9-1.2,1.2-2.1c0.3-0.9,0.6-1.8,0.7-2.9c0.1-1.1,0.2-2.1,0.2-3.2c0-0.7,0-1.3-0.1-2c0-0.7-0.1-1.3-0.3-1.8
				c-0.1,0.1-0.3,0.2-0.5,0.2c-0.2,0-0.3,0.1-0.5,0.1c-0.6,0-1-0.2-1.3-0.6c-0.3-0.4-0.4-0.8-0.4-1.3c0-0.5,0.2-0.9,0.5-1.3
				c0.3-0.4,0.8-0.6,1.4-0.6c0.4,0,0.8,0.1,1.2,0.4c0.4,0.2,0.7,0.6,1,1.1c0.3,0.5,0.5,1.2,0.6,2C176.2,17.2,176.3,18.2,176.3,19.4z
				"/>
			<path class="st1" d="M192.4,13.6v12.2c0,0.2,0,0.5,0,0.9c0,0.4,0.1,0.7,0.2,1.1s0.3,0.6,0.5,0.9c0.2,0.3,0.5,0.4,0.9,0.4
				c1.2,0,2-1.3,2.6-3.9h1.3c-0.3,1.5-0.6,2.7-1,3.6c-0.4,0.9-0.8,1.5-1.3,2c-0.5,0.5-0.9,0.8-1.4,0.9c-0.5,0.1-0.9,0.2-1.3,0.2
				c-0.6,0-1-0.1-1.4-0.3c-0.4-0.2-0.7-0.4-1-0.8c-0.3-0.3-0.5-0.7-0.7-1.1c-0.2-0.4-0.3-0.8-0.4-1.3c-0.4,0.9-0.9,1.7-1.7,2.4
				c-0.8,0.7-1.8,1-2.9,1c-0.7,0-1.4-0.1-2.2-0.4c-0.7-0.3-1.4-0.8-2-1.4s-1.1-1.5-1.4-2.6c-0.4-1-0.6-2.3-0.6-3.8
				c0-1.1,0.1-2.3,0.4-3.5c0.3-1.2,0.7-2.3,1.2-3.3s1.3-1.8,2.1-2.4c0.9-0.6,1.9-1,3.1-1c0.3,0,0.6,0,0.9,0.1
				c0.3,0.1,0.6,0.2,0.9,0.3c0.3,0.1,0.6,0.3,0.8,0.6c0.3,0.2,0.5,0.5,0.6,0.9v-1.7H192.4z M192.2,7.7c0,0.4-0.1,0.8-0.4,1.2
				s-0.6,0.7-1,1c-0.4,0.3-0.9,0.6-1.4,0.8c-0.6,0.2-1.1,0.3-1.7,0.3c-0.5,0-1-0.1-1.5-0.2c-0.5-0.1-1-0.3-1.4-0.4
				c-0.5-0.2-0.9-0.3-1.4-0.4c-0.5-0.1-0.9-0.2-1.3-0.2c-0.8,0-1.5,0.3-2,0.9l-0.2-0.1c0.3-1.1,0.9-1.9,1.7-2.4
				c0.8-0.5,1.8-0.8,3-0.8c0.6,0,1.1,0.1,1.6,0.2c0.5,0.1,0.9,0.2,1.4,0.4c0.4,0.1,0.9,0.3,1.3,0.4c0.4,0.1,0.9,0.2,1.3,0.2
				c0.4,0,0.8-0.1,1.1-0.2c0.3-0.1,0.6-0.3,0.8-0.5H192.2z M185.7,29.1c0.4,0,0.7-0.1,1.1-0.3c0.4-0.2,0.7-0.5,1-0.8
				c0.3-0.3,0.5-0.8,0.7-1.2c0.2-0.5,0.3-1,0.3-1.6v-8.2c-0.2-0.4-0.4-0.7-0.8-1.1c-0.3-0.3-0.8-0.5-1.3-0.5c-0.8,0-1.4,0.3-2,0.8
				c-0.6,0.5-1,1.2-1.3,1.9s-0.6,1.6-0.7,2.6c-0.2,0.9-0.2,1.8-0.2,2.7c0,2.1,0.3,3.5,0.8,4.4C183.8,28.6,184.6,29.1,185.7,29.1z"/>
			<path class="st1" d="M203.1,13.4c0.8,0,1.6,0.1,2.2,0.4c0.6,0.2,1.2,0.6,1.6,1s0.8,0.9,1.1,1.5c0.3,0.6,0.5,1.2,0.6,1.9
				c0.7,0,1.2-0.2,1.4-0.6s0.5-0.8,0.6-1.2h1c-0.2,0.8-0.5,1.6-1,2.4c-0.4,0.8-1.1,1.4-1.9,1.9c0,0.3,0.1,0.6,0.1,0.8
				c0,0.3,0,0.6,0,0.8c0,3-0.5,5.3-1.6,6.9s-2.6,2.5-4.5,2.5c-0.8,0-1.6-0.1-2.4-0.4c-0.8-0.3-1.5-0.8-2.2-1.4
				c-0.6-0.7-1.2-1.5-1.6-2.6c-0.4-1.1-0.6-2.4-0.6-3.9c0-1.1,0.1-2.2,0.3-3.3c0.2-1.2,0.6-2.3,1.2-3.2c0.5-1,1.3-1.8,2.2-2.4
				C200.7,13.7,201.8,13.4,203.1,13.4z M203.5,29.1c1.3,0,2.2-0.6,2.8-1.9c0.6-1.3,0.9-3,0.9-5.3c0-0.1,0-0.2,0-0.4s0-0.3,0-0.4
				c-0.7,0-1.2-0.2-1.5-0.6c-0.3-0.4-0.5-0.9-0.5-1.6c0-0.5,0.1-0.9,0.4-1.1c0.2-0.3,0.6-0.4,1-0.5c-0.3-0.7-0.6-1.2-1.1-1.5
				c-0.4-0.3-0.9-0.4-1.4-0.4c-0.7,0-1.4,0.2-1.9,0.7c-0.5,0.5-0.9,1.1-1.3,1.9c-0.3,0.8-0.6,1.6-0.7,2.5c-0.1,0.9-0.2,1.8-0.2,2.7
				c0,1.2,0.1,2.1,0.3,2.9s0.5,1.3,0.8,1.8s0.7,0.7,1.1,0.9C202.7,29,203.1,29.1,203.5,29.1z"/>
		</g>
	</g>
</g>
</svg>
