<svg xmlns="http://www.w3.org/2000/svg" xmlns:xlink="http://www.w3.org/1999/xlink" viewBox="0 0 567.61 567.61"><defs><style>.cls-1{opacity:0.64;}.cls-10,.cls-11,.cls-12,.cls-13,.cls-14,.cls-15,.cls-16,.cls-17,.cls-18,.cls-19,.cls-2,.cls-20,.cls-21,.cls-22,.cls-23,.cls-24,.cls-25,.cls-26,.cls-27,.cls-28,.cls-29,.cls-3,.cls-30,.cls-31,.cls-32,.cls-33,.cls-34,.cls-35,.cls-36,.cls-37,.cls-38,.cls-39,.cls-4,.cls-40,.cls-41,.cls-42,.cls-43,.cls-44,.cls-45,.cls-46,.cls-47,.cls-48,.cls-49,.cls-5,.cls-50,.cls-51,.cls-52,.cls-53,.cls-54,.cls-55,.cls-56,.cls-57,.cls-58,.cls-59,.cls-6,.cls-60,.cls-61,.cls-62,.cls-7,.cls-8,.cls-9{fill:none;stroke-miterlimit:10;}.cls-2{stroke-width:0.17px;stroke:url(#linear-gradient);}.cls-3{stroke-width:0.18px;stroke:url(#linear-gradient-2);}.cls-4{stroke-width:0.19px;stroke:url(#linear-gradient-3);}.cls-5{stroke-width:0.2px;stroke:url(#linear-gradient-4);}.cls-6{stroke-width:0.2px;stroke:url(#linear-gradient-5);}.cls-7{stroke-width:0.21px;stroke:url(#linear-gradient-6);}.cls-8{stroke-width:0.22px;stroke:url(#linear-gradient-7);}.cls-9{stroke-width:0.23px;stroke:url(#linear-gradient-8);}.cls-10{stroke-width:0.24px;stroke:url(#linear-gradient-9);}.cls-11{stroke-width:0.25px;stroke:url(#linear-gradient-10);}.cls-12{stroke-width:0.26px;stroke:url(#linear-gradient-11);}.cls-13{stroke-width:0.27px;stroke:url(#linear-gradient-12);}.cls-14{stroke-width:0.28px;stroke:url(#linear-gradient-13);}.cls-15{stroke-width:0.29px;stroke:url(#linear-gradient-14);}.cls-16{stroke-width:0.31px;stroke:url(#linear-gradient-15);}.cls-17{stroke-width:0.32px;stroke:url(#linear-gradient-16);}.cls-18{stroke-width:0.33px;stroke:url(#linear-gradient-17);}.cls-19{stroke-width:0.35px;stroke:url(#linear-gradient-18);}.cls-20{stroke-width:0.36px;stroke:url(#linear-gradient-19);}.cls-21{stroke-width:0.38px;stroke:url(#linear-gradient-20);}.cls-22{stroke-width:0.39px;stroke:url(#linear-gradient-21);}.cls-23{stroke-width:0.41px;stroke:url(#linear-gradient-22);}.cls-24{stroke-width:0.42px;stroke:url(#linear-gradient-23);}.cls-25{stroke-width:0.44px;stroke:url(#linear-gradient-24);}.cls-26{stroke-width:0.46px;stroke:url(#linear-gradient-25);}.cls-27{stroke-width:0.48px;stroke:url(#linear-gradient-26);}.cls-28{stroke-width:0.5px;stroke:url(#linear-gradient-27);}.cls-29{stroke-width:0.52px;stroke:url(#linear-gradient-28);}.cls-30{stroke-width:0.54px;stroke:url(#linear-gradient-29);}.cls-31{stroke-width:0.56px;stroke:url(#linear-gradient-30);}.cls-32{stroke-width:0.59px;stroke:url(#linear-gradient-31);}.cls-33{stroke-width:0.61px;stroke:url(#linear-gradient-32);}.cls-34{stroke-width:0.64px;stroke:url(#linear-gradient-33);}.cls-35{stroke-width:0.66px;stroke:url(#linear-gradient-34);}.cls-36{stroke-width:0.69px;stroke:url(#linear-gradient-35);}.cls-37{stroke-width:0.72px;stroke:url(#linear-gradient-36);}.cls-38{stroke-width:0.75px;stroke:url(#linear-gradient-37);}.cls-39{stroke-width:0.78px;stroke:url(#linear-gradient-38);}.cls-40{stroke-width:0.81px;stroke:url(#linear-gradient-39);}.cls-41{stroke-width:0.85px;stroke:url(#linear-gradient-40);}.cls-42{stroke-width:0.88px;stroke:url(#linear-gradient-41);}.cls-43{stroke-width:0.92px;stroke:url(#linear-gradient-42);}.cls-44{stroke-width:0.96px;stroke:url(#linear-gradient-43);}.cls-45{stroke-width:1px;stroke:url(#linear-gradient-44);}.cls-46{stroke-width:1.04px;stroke:url(#linear-gradient-45);}.cls-47{stroke-width:1.08px;stroke:url(#linear-gradient-46);}.cls-48{stroke-width:1.13px;stroke:url(#linear-gradient-47);}.cls-49{stroke-width:1.18px;stroke:url(#linear-gradient-48);}.cls-50{stroke-width:1.23px;stroke:url(#linear-gradient-49);}.cls-51{stroke-width:1.28px;stroke:url(#linear-gradient-50);}.cls-52{stroke-width:1.33px;stroke:url(#linear-gradient-51);}.cls-53{stroke-width:1.39px;stroke:url(#linear-gradient-52);}.cls-54{stroke-width:1.44px;stroke:url(#linear-gradient-53);}.cls-55{stroke-width:1.5px;stroke:url(#linear-gradient-54);}.cls-56{stroke-width:1.57px;stroke:url(#linear-gradient-55);}.cls-57{stroke-width:1.63px;stroke:url(#linear-gradient-56);}.cls-58{stroke-width:1.7px;stroke:url(#linear-gradient-57);}.cls-59{stroke-width:1.77px;stroke:url(#linear-gradient-58);}.cls-60{stroke-width:1.84px;stroke:url(#linear-gradient-59);}.cls-61{stroke-width:1.92px;stroke:url(#linear-gradient-60);}.cls-62{stroke-width:2px;stroke:url(#linear-gradient-61);}</style><linearGradient id="linear-gradient" x1="0.91" y1="283.8" x2="566.69" y2="283.8" gradientTransform="translate(259.3 259.3) scale(0.09)" gradientUnits="userSpaceOnUse"><stop offset="0" stop-color="#ffe8d9"/><stop offset="0.27" stop-color="#ffb9d8"/><stop offset="0.54" stop-color="#c8f4dc"/><stop offset="0.77" stop-color="#96e2eb"/><stop offset="1" stop-color="#b39bea"/></linearGradient><linearGradient id="linear-gradient-2" x1="0.91" y1="283.8" x2="566.7" y2="283.8" gradientTransform="translate(258.27 258.27) scale(0.09)" xlink:href="#linear-gradient"/><linearGradient id="linear-gradient-3" x1="0.91" y1="283.8" x2="566.7" y2="283.8" gradientTransform="translate(257.21 257.21) scale(0.09)" xlink:href="#linear-gradient"/><linearGradient id="linear-gradient-4" x1="0.9" y1="283.8" x2="566.7" y2="283.8" gradientTransform="translate(256.1 256.1) scale(0.1)" xlink:href="#linear-gradient"/><linearGradient id="linear-gradient-5" x1="0.9" y1="283.8" x2="566.71" y2="283.8" gradientTransform="translate(254.95 254.95) scale(0.1)" xlink:href="#linear-gradient"/><linearGradient id="linear-gradient-6" x1="0.89" y1="283.8" x2="566.71" y2="283.8" gradientTransform="translate(253.75 253.75) scale(0.11)" xlink:href="#linear-gradient"/><linearGradient id="linear-gradient-7" x1="0.89" y1="283.8" x2="566.72" y2="283.8" gradientTransform="translate(252.49 252.49) scale(0.11)" xlink:href="#linear-gradient"/><linearGradient id="linear-gradient-8" x1="0.89" y1="283.8" x2="566.72" y2="283.8" gradientTransform="translate(251.19 251.19) scale(0.11)" xlink:href="#linear-gradient"/><linearGradient id="linear-gradient-9" x1="0.88" y1="283.8" x2="566.73" y2="283.8" gradientTransform="translate(249.83 249.83) scale(0.12)" xlink:href="#linear-gradient"/><linearGradient id="linear-gradient-10" x1="0.88" y1="283.8" x2="566.73" y2="283.8" gradientTransform="translate(248.42 248.42) scale(0.12)" xlink:href="#linear-gradient"/><linearGradient id="linear-gradient-11" x1="0.87" y1="283.8" x2="566.74" y2="283.8" gradientTransform="translate(246.94 246.94) scale(0.13)" xlink:href="#linear-gradient"/><linearGradient id="linear-gradient-12" x1="0.86" y1="283.8" x2="566.74" y2="283.8" gradientTransform="translate(245.41 245.41) scale(0.14)" xlink:href="#linear-gradient"/><linearGradient id="linear-gradient-13" x1="0.86" y1="283.8" x2="566.75" y2="283.8" gradientTransform="translate(243.81 243.81) scale(0.14)" xlink:href="#linear-gradient"/><linearGradient id="linear-gradient-14" x1="0.85" y1="283.8" x2="566.75" y2="283.8" gradientTransform="translate(242.14 242.14) scale(0.15)" xlink:href="#linear-gradient"/><linearGradient id="linear-gradient-15" x1="0.85" y1="283.8" x2="566.76" y2="283.8" gradientTransform="translate(240.4 240.4) scale(0.15)" xlink:href="#linear-gradient"/><linearGradient id="linear-gradient-16" x1="0.84" y1="283.8" x2="566.77" y2="283.8" gradientTransform="translate(238.59 238.59) scale(0.16)" xlink:href="#linear-gradient"/><linearGradient id="linear-gradient-17" x1="0.83" y1="283.8" x2="566.77" y2="283.8" gradientTransform="translate(236.71 236.71) scale(0.17)" xlink:href="#linear-gradient"/><linearGradient id="linear-gradient-18" x1="0.83" y1="283.8" x2="566.78" y2="283.8" gradientTransform="translate(234.75 234.75) scale(0.17)" xlink:href="#linear-gradient"/><linearGradient id="linear-gradient-19" x1="0.82" y1="283.8" x2="566.79" y2="283.8" gradientTransform="translate(232.7 232.7) scale(0.18)" xlink:href="#linear-gradient"/><linearGradient id="linear-gradient-20" x1="0.81" y1="283.8" x2="566.79" y2="283.8" gradientTransform="translate(230.58 230.58) scale(0.19)" xlink:href="#linear-gradient"/><linearGradient id="linear-gradient-21" x1="0.8" y1="283.8" x2="566.8" y2="283.8" gradientTransform="translate(228.36 228.36) scale(0.2)" xlink:href="#linear-gradient"/><linearGradient id="linear-gradient-22" x1="0.8" y1="283.8" x2="566.81" y2="283.8" gradientTransform="translate(226.05 226.05) scale(0.2)" xlink:href="#linear-gradient"/><linearGradient id="linear-gradient-23" x1="0.79" y1="283.8" x2="566.82" y2="283.8" gradientTransform="translate(223.64 223.64) scale(0.21)" xlink:href="#linear-gradient"/><linearGradient id="linear-gradient-24" x1="0.78" y1="283.8" x2="566.83" y2="283.8" gradientTransform="translate(221.13 221.13) scale(0.22)" xlink:href="#linear-gradient"/><linearGradient id="linear-gradient-25" x1="0.77" y1="283.8" x2="566.84" y2="283.8" gradientTransform="translate(218.52 218.52) scale(0.23)" xlink:href="#linear-gradient"/><linearGradient id="linear-gradient-26" x1="0.76" y1="283.8" x2="566.85" y2="283.8" gradientTransform="translate(215.8 215.8) scale(0.24)" xlink:href="#linear-gradient"/><linearGradient id="linear-gradient-27" x1="0.75" y1="283.8" x2="566.86" y2="283.8" gradientTransform="translate(212.97 212.97) scale(0.25)" xlink:href="#linear-gradient"/><linearGradient id="linear-gradient-28" x1="0.74" y1="283.8" x2="566.87" y2="283.8" gradientTransform="translate(210.02 210.02) scale(0.26)" xlink:href="#linear-gradient"/><linearGradient id="linear-gradient-29" x1="0.73" y1="283.8" x2="566.88" y2="283.8" gradientTransform="translate(206.94 206.94) scale(0.27)" xlink:href="#linear-gradient"/><linearGradient id="linear-gradient-30" x1="0.72" y1="283.8" x2="566.89" y2="283.8" gradientTransform="translate(203.74 203.74) scale(0.28)" xlink:href="#linear-gradient"/><linearGradient id="linear-gradient-31" x1="0.71" y1="283.8" x2="566.9" y2="283.8" gradientTransform="translate(200.41 200.41) scale(0.29)" xlink:href="#linear-gradient"/><linearGradient id="linear-gradient-32" x1="0.69" y1="283.8" x2="566.91" y2="283.8" gradientTransform="translate(196.93 196.93) scale(0.31)" xlink:href="#linear-gradient"/><linearGradient id="linear-gradient-33" x1="0.68" y1="283.8" x2="566.92" y2="283.8" gradientTransform="translate(193.31 193.31) scale(0.32)" xlink:href="#linear-gradient"/><linearGradient id="linear-gradient-34" x1="0.67" y1="283.8" x2="566.94" y2="283.8" gradientTransform="translate(189.54 189.54) scale(0.33)" xlink:href="#linear-gradient"/><linearGradient id="linear-gradient-35" x1="0.65" y1="283.8" x2="566.95" y2="283.8" gradientTransform="translate(185.61 185.61) scale(0.35)" xlink:href="#linear-gradient"/><linearGradient id="linear-gradient-36" x1="0.64" y1="283.8" x2="566.97" y2="283.8" gradientTransform="translate(181.52 181.52) scale(0.36)" xlink:href="#linear-gradient"/><linearGradient id="linear-gradient-37" x1="0.62" y1="283.8" x2="566.98" y2="283.8" gradientTransform="translate(177.26 177.26) scale(0.38)" xlink:href="#linear-gradient"/><linearGradient id="linear-gradient-38" x1="0.61" y1="283.8" x2="567" y2="283.8" gradientTransform="translate(172.82 172.82) scale(0.39)" xlink:href="#linear-gradient"/><linearGradient id="linear-gradient-39" x1="0.59" y1="283.8" x2="567.01" y2="283.8" gradientTransform="translate(168.2 168.2) scale(0.41)" xlink:href="#linear-gradient"/><linearGradient id="linear-gradient-40" x1="0.58" y1="283.8" x2="567.03" y2="283.8" gradientTransform="translate(163.38 163.38) scale(0.42)" xlink:href="#linear-gradient"/><linearGradient id="linear-gradient-41" x1="0.56" y1="283.8" x2="567.05" y2="283.8" gradientTransform="translate(158.36 158.36) scale(0.44)" xlink:href="#linear-gradient"/><linearGradient id="linear-gradient-42" x1="0.54" y1="283.8" x2="567.07" y2="283.8" gradientTransform="translate(153.13 153.13) scale(0.46)" xlink:href="#linear-gradient"/><linearGradient id="linear-gradient-43" x1="0.52" y1="283.8" x2="567.09" y2="283.8" gradientTransform="translate(147.69 147.69) scale(0.48)" xlink:href="#linear-gradient"/><linearGradient id="linear-gradient-44" x1="0.5" y1="283.8" x2="567.11" y2="283.8" gradientTransform="translate(142.02 142.02) scale(0.5)" xlink:href="#linear-gradient"/><linearGradient id="linear-gradient-45" x1="0.48" y1="283.8" x2="567.13" y2="283.8" gradientTransform="translate(136.11 136.11) scale(0.52)" xlink:href="#linear-gradient"/><linearGradient id="linear-gradient-46" x1="0.46" y1="283.8" x2="567.15" y2="283.8" gradientTransform="translate(129.96 129.96) scale(0.54)" xlink:href="#linear-gradient"/><linearGradient id="linear-gradient-47" x1="0.44" y1="283.8" x2="567.17" y2="283.8" gradientTransform="translate(123.55 123.55) scale(0.56)" xlink:href="#linear-gradient"/><linearGradient id="linear-gradient-48" x1="0.41" y1="283.8" x2="567.19" y2="283.8" gradientTransform="translate(116.87 116.87) scale(0.59)" xlink:href="#linear-gradient"/><linearGradient id="linear-gradient-49" x1="0.39" y1="283.8" x2="567.22" y2="283.8" gradientTransform="translate(109.91 109.91) scale(0.61)" xlink:href="#linear-gradient"/><linearGradient id="linear-gradient-50" x1="0.36" y1="283.8" x2="567.24" y2="283.8" gradientTransform="translate(102.67 102.67) scale(0.64)" xlink:href="#linear-gradient"/><linearGradient id="linear-gradient-51" x1="0.34" y1="283.8" x2="567.27" y2="283.8" gradientTransform="translate(95.12 95.12) scale(0.66)" xlink:href="#linear-gradient"/><linearGradient id="linear-gradient-52" x1="0.31" y1="283.8" x2="567.3" y2="283.8" gradientTransform="translate(87.26 87.26) scale(0.69)" xlink:href="#linear-gradient"/><linearGradient id="linear-gradient-53" x1="0.28" y1="283.8" x2="567.33" y2="283.8" gradientTransform="translate(79.07 79.07) scale(0.72)" xlink:href="#linear-gradient"/><linearGradient id="linear-gradient-54" x1="0.25" y1="283.8" x2="567.36" y2="283.8" gradientTransform="translate(70.54 70.54) scale(0.75)" xlink:href="#linear-gradient"/><linearGradient id="linear-gradient-55" x1="0.22" y1="283.8" x2="567.39" y2="283.8" gradientTransform="translate(61.65 61.65) scale(0.78)" xlink:href="#linear-gradient"/><linearGradient id="linear-gradient-56" x1="0.18" y1="283.8" x2="567.42" y2="283.8" gradientTransform="translate(52.4 52.4) scale(0.82)" xlink:href="#linear-gradient"/><linearGradient id="linear-gradient-57" x1="0.15" y1="283.8" x2="567.46" y2="283.8" gradientTransform="translate(42.76 42.76) scale(0.85)" xlink:href="#linear-gradient"/><linearGradient id="linear-gradient-58" x1="0.12" y1="283.8" x2="567.49" y2="283.8" gradientTransform="translate(32.71 32.71) scale(0.88)" xlink:href="#linear-gradient"/><linearGradient id="linear-gradient-59" x1="0.08" y1="283.8" x2="567.53" y2="283.8" gradientTransform="translate(22.25 22.25) scale(0.92)" xlink:href="#linear-gradient"/><linearGradient id="linear-gradient-60" x1="0.04" y1="283.8" x2="567.57" y2="283.8" gradientTransform="translate(11.35 11.35) scale(0.96)" xlink:href="#linear-gradient"/><linearGradient id="linear-gradient-61" x1="0" y1="283.8" x2="567.61" y2="283.8" gradientTransform="matrix(1, 0, 0, 1, 0, 0)" xlink:href="#linear-gradient"/></defs><title>Asset 5</title><g id="Layer_2" data-name="Layer 2"><g id="Layer_6" data-name="Layer 6"><g class="cls-1"><rect class="cls-2" x="259.38" y="259.38" width="48.84" height="48.84" transform="matrix(0.5, -0.87, 0.87, 0.5, -103.88, 387.68)"/><rect class="cls-3" x="258.36" y="258.36" width="50.88" height="50.88" transform="translate(-105.63 380.9) rotate(-59)"/><rect class="cls-4" x="257.3" y="257.3" width="53" height="53" transform="translate(-107.27 374.09) rotate(-58)"/><rect class="cls-5" x="256.2" y="256.2" width="55.2" height="55.2" transform="translate(-108.78 367.25) rotate(-57)"/><rect class="cls-6" x="255.05" y="255.05" width="57.5" height="57.5" transform="translate(-110.18 360.39) rotate(-56)"/><rect class="cls-7" x="253.85" y="253.85" width="59.9" height="59.9" transform="translate(-111.46 353.5) rotate(-55)"/><rect class="cls-8" x="252.6" y="252.6" width="62.4" height="62.4" transform="translate(-112.61 346.59) rotate(-54)"/><rect class="cls-9" x="251.3" y="251.3" width="65" height="65" transform="matrix(0.6, -0.8, 0.8, 0.6, -113.65, 339.66)"/><rect class="cls-10" x="249.95" y="249.95" width="67.7" height="67.7" transform="translate(-114.56 332.72) rotate(-52)"/><rect class="cls-11" x="248.54" y="248.54" width="70.53" height="70.53" transform="translate(-115.36 325.76) rotate(-51)"/><rect class="cls-12" x="247.07" y="247.07" width="73.46" height="73.46" transform="translate(-116.03 318.78) rotate(-50)"/><rect class="cls-13" x="245.54" y="245.54" width="76.53" height="76.53" transform="translate(-116.58 311.8) rotate(-49)"/><rect class="cls-14" x="243.95" y="243.95" width="79.71" height="79.71" transform="translate(-117 304.81) rotate(-48)"/><rect class="cls-15" x="242.29" y="242.29" width="83.04" height="83.04" transform="translate(-117.31 297.81) rotate(-47)"/><rect class="cls-16" x="240.56" y="240.56" width="86.49" height="86.49" transform="translate(-117.49 290.81) rotate(-46)"/><rect class="cls-17" x="238.75" y="238.75" width="90.1" height="90.1" transform="translate(-117.56 283.8) rotate(-45)"/><rect class="cls-18" x="236.88" y="236.88" width="93.85" height="93.85" transform="translate(-117.49 276.8) rotate(-44)"/><rect class="cls-19" x="234.92" y="234.92" width="97.76" height="97.76" transform="translate(-117.31 269.8) rotate(-43)"/><rect class="cls-20" x="232.88" y="232.88" width="101.84" height="101.84" transform="translate(-117 262.8) rotate(-42)"/><rect class="cls-21" x="230.76" y="230.76" width="106.08" height="106.08" transform="translate(-116.58 255.81) rotate(-41)"/><rect class="cls-22" x="228.55" y="228.55" width="110.5" height="110.5" transform="translate(-116.03 248.82) rotate(-40)"/><rect class="cls-23" x="226.25" y="226.25" width="115.1" height="115.1" transform="translate(-115.36 241.85) rotate(-39)"/><rect class="cls-24" x="223.85" y="223.85" width="119.9" height="119.9" transform="translate(-114.56 234.89) rotate(-38)"/><rect class="cls-25" x="221.35" y="221.35" width="124.9" height="124.9" transform="translate(-113.65 227.94) rotate(-37)"/><rect class="cls-26" x="218.75" y="218.75" width="130.1" height="130.1" transform="matrix(0.81, -0.59, 0.59, 0.81, -112.61, 221.02)"/><rect class="cls-27" x="216.04" y="216.04" width="135.52" height="135.52" transform="translate(-111.46 214.11) rotate(-35)"/><rect class="cls-28" x="213.22" y="213.22" width="141.17" height="141.17" transform="matrix(0.83, -0.56, 0.56, 0.83, -110.18, 207.22)"/><rect class="cls-29" x="210.28" y="210.28" width="147.05" height="147.05" transform="translate(-108.78 200.36) rotate(-33)"/><rect class="cls-30" x="207.21" y="207.21" width="153.18" height="153.18" transform="translate(-107.27 193.52) rotate(-32)"/><rect class="cls-31" x="204.02" y="204.02" width="159.56" height="159.56" transform="translate(-105.63 186.71) rotate(-31)"/><rect class="cls-32" x="200.7" y="200.7" width="166.21" height="166.21" transform="translate(-103.88 179.92) rotate(-30)"/><rect class="cls-33" x="197.24" y="197.24" width="173.13" height="173.13" transform="translate(-102.01 173.17) rotate(-29)"/><rect class="cls-34" x="193.63" y="193.63" width="180.35" height="180.35" transform="translate(-100.02 166.46) rotate(-28)"/><rect class="cls-35" x="189.87" y="189.87" width="187.86" height="187.86" transform="translate(-97.91 159.78) rotate(-27)"/><rect class="cls-36" x="185.96" y="185.96" width="195.69" height="195.69" transform="translate(-95.69 153.13) rotate(-26)"/><rect class="cls-37" x="181.88" y="181.88" width="203.84" height="203.84" transform="translate(-93.35 146.53) rotate(-25)"/><rect class="cls-38" x="177.63" y="177.63" width="212.34" height="212.34" transform="translate(-90.9 139.97) rotate(-24)"/><rect class="cls-39" x="173.21" y="173.21" width="221.18" height="221.18" transform="translate(-88.33 133.45) rotate(-23)"/><rect class="cls-40" x="168.6" y="168.6" width="230.4" height="230.4" transform="translate(-85.65 126.98) rotate(-22)"/><rect class="cls-41" x="163.8" y="163.8" width="240" height="240" transform="translate(-82.86 120.56) rotate(-21)"/><rect class="cls-42" x="158.8" y="158.8" width="250" height="250" transform="translate(-79.95 114.18) rotate(-20)"/><rect class="cls-43" x="153.6" y="153.6" width="260.42" height="260.42" transform="translate(-76.94 107.86) rotate(-19)"/><rect class="cls-44" x="148.17" y="148.17" width="271.27" height="271.27" transform="translate(-73.81 101.59) rotate(-18)"/><rect class="cls-45" x="142.52" y="142.52" width="282.57" height="282.57" transform="translate(-70.58 95.38) rotate(-17)"/><rect class="cls-46" x="136.63" y="136.63" width="294.34" height="294.34" transform="translate(-67.23 89.22) rotate(-16)"/><rect class="cls-47" x="130.5" y="130.5" width="306.61" height="306.61" transform="translate(-63.78 83.12) rotate(-15)"/><rect class="cls-48" x="124.11" y="124.11" width="319.38" height="319.38" transform="translate(-60.23 77.09) rotate(-14)"/><rect class="cls-49" x="117.46" y="117.46" width="332.69" height="332.69" transform="translate(-56.57 71.12) rotate(-13)"/><rect class="cls-50" x="110.53" y="110.53" width="346.55" height="346.55" transform="translate(-52.8 65.21) rotate(-12)"/><rect class="cls-51" x="103.31" y="103.31" width="360.99" height="360.99" transform="translate(-48.94 59.37) rotate(-11)"/><rect class="cls-52" x="95.79" y="95.79" width="376.03" height="376.03" transform="translate(-44.97 53.59) rotate(-10)"/><rect class="cls-53" x="87.95" y="87.95" width="391.7" height="391.7" transform="translate(-40.9 47.89) rotate(-9)"/><rect class="cls-54" x="79.79" y="79.79" width="408.02" height="408.02" transform="translate(-36.74 42.26) rotate(-8)"/><rect class="cls-55" x="71.29" y="71.29" width="425.02" height="425.02" transform="translate(-32.47 36.7) rotate(-7)"/><rect class="cls-56" x="62.44" y="62.44" width="442.73" height="442.73" transform="translate(-28.11 31.22) rotate(-6)"/><rect class="cls-57" x="53.21" y="53.21" width="461.18" height="461.18" transform="translate(-23.66 25.82) rotate(-5)"/><rect class="cls-58" x="43.61" y="43.61" width="480.4" height="480.4" transform="translate(-19.11 20.49) rotate(-4)"/><rect class="cls-59" x="33.6" y="33.6" width="500.41" height="500.41" transform="translate(-14.46 15.24) rotate(-3)"/><rect class="cls-60" x="23.17" y="23.17" width="521.26" height="521.26" transform="translate(-9.73 10.08) rotate(-2)"/><rect class="cls-61" x="12.31" y="12.31" width="542.98" height="542.98" transform="translate(-4.91 5) rotate(-1)"/><rect class="cls-62" x="1" y="1" width="565.61" height="565.61"/></g></g></g></svg>