<svg xmlns="http://www.w3.org/2000/svg" xmlns:xlink="http://www.w3.org/1999/xlink" viewBox="0 0 993.35 718.58"><defs><style>.cls-1{fill:url(#linear-gradient);}.cls-2{fill:#abfff7;}.cls-3{fill:#80fff3;}.cls-4{fill:#30b2af;}.cls-5{fill:#44e2de;}.cls-6{fill:#3acccc;}</style><linearGradient id="linear-gradient" x1="505.27" y1="-134.22" x2="1361.23" y2="-990.18" gradientTransform="translate(-436.58 921.49)" gradientUnits="userSpaceOnUse"><stop offset="0" stop-color="#6460bf"/><stop offset="0.41" stop-color="#5b65c4"/><stop offset="1" stop-color="#4671d1"/></linearGradient></defs><title>Asset 2</title><g id="Layer_2" data-name="Layer 2"><g id="Layer_1-2" data-name="Layer 1"><rect class="cls-1" x="137.38" y="-137.38" width="718.58" height="993.35" transform="translate(855.96 -137.38) rotate(90)"/><polygon class="cls-2" points="459.54 210.76 459.54 285.03 385.28 247.89 459.54 210.76"/><polygon class="cls-3" points="459.54 285.03 385.28 322.16 385.28 247.89 459.54 285.03"/><polygon class="cls-2" points="459.54 210.76 533.8 247.89 459.54 285.03 459.54 210.76"/><polygon class="cls-3" points="459.54 285.03 459.54 359.29 385.28 322.16 459.54 285.03"/><polygon class="cls-3" points="459.54 359.29 385.28 396.42 385.28 322.16 459.54 359.29"/><polygon class="cls-4" points="459.54 359.29 533.8 322.16 459.54 285.03 459.54 359.29"/><polygon class="cls-4" points="533.8 322.16 533.8 396.42 459.54 359.29 533.8 322.16"/><polygon class="cls-3" points="533.8 247.89 533.8 322.16 459.54 285.03 533.8 247.89"/><polygon class="cls-5" points="459.54 359.29 459.54 433.55 385.28 396.42 459.54 359.29"/><polygon class="cls-4" points="459.54 433.55 533.8 396.42 459.54 359.29 459.54 433.55"/><polygon class="cls-5" points="459.54 433.55 385.28 470.69 385.28 396.42 459.54 433.55"/><polygon class="cls-3" points="533.8 247.89 608.07 285.03 533.8 322.16 533.8 247.89"/><polygon class="cls-4" points="533.8 396.42 533.8 470.69 459.54 433.55 533.8 396.42"/><polygon class="cls-6" points="533.8 470.69 459.54 507.82 459.54 433.55 533.8 470.69"/><polygon class="cls-6" points="459.54 507.82 385.28 470.69 459.54 433.55 459.54 507.82"/><polygon class="cls-5" points="608.07 285.03 608.07 359.29 533.8 322.16 608.07 285.03"/><polygon class="cls-5" points="608.07 359.29 533.8 396.42 533.8 322.16 608.07 359.29"/><polygon class="cls-6" points="608.07 359.29 608.07 433.55 533.8 396.42 608.07 359.29"/><polygon class="cls-6" points="608.07 433.55 533.8 470.69 533.8 396.42 608.07 433.55"/></g></g></svg>